<svg xmlns="http://www.w3.org/2000/svg" xmlns:xlink="http://www.w3.org/1999/xlink" id="Layer_1" x="0" y="0" version="1.1" viewBox="0 0 100 100" xml:space="preserve" style="enable-background:new 0 0 100 100"><path d="M72,44.8h-5.7l7.5-30.9c0.9-3.8-1.5-7.5-5.2-8.4c-1.8-0.4-3.7-0.1-5.3,0.9c-1.6,1-2.7,2.5-3.1,4.3L54,36.9l-6.2-26.3	c-0.9-3.8-4.7-6.1-8.4-5.2c-3.8,0.9-6.1,4.7-5.2,8.4l4.2,19c-0.1,0-0.3,0-0.4,0c-3.9,0-7,3.1-7,7v0.7c-0.9-0.4-1.9-0.7-3-0.7	c-3.9,0-7,3.1-7,7v17c0,7,4.1,15.7,12,19.3v5.7c0,3.3,2.7,6,6,6h22c3.3,0,6-2.7,6-6v-5.7c7.9-3.7,12-12.3,12-19.3v-12	C79,47.9,75.9,44.8,72,44.8z M64.1,11.5c0.2-0.8,0.7-1.4,1.3-1.9c0.7-0.4,1.5-0.6,2.3-0.4c1.6,0.4,2.6,2,2.2,3.6l-7.7,31.9h-5.9	L64.1,11.5z M35,39.8c0-1.7,1.3-3,3-3s3,1.3,3,3v12c0,1.6-1.3,3-3,3s-3-1.4-3-3V39.8z M25,46.8c0-1.7,1.3-3,3-3s3,1.3,3,3v6	c0,1.6-1.3,3-3,3s-3-1.4-3-3V46.8z M75,63.8c0,6-3.7,13.5-10.7,16.1c-0.8,0.3-1.3,1-1.3,1.9v7c0,1.1-0.9,2-2,2H39c-1.1,0-2-0.9-2-2	v-7c0-0.8-0.5-1.6-1.3-1.9C28.7,77.3,25,69.8,25,63.8v-4.7c0.9,0.4,1.9,0.7,3,0.7c2.2,0,4.2-1,5.5-2.7c1.2,1,2.8,1.7,4.5,1.7	c3.9,0,7-3.1,7-7v-12c0-1.9-0.8-3.7-2-5l-4.9-21.9c-0.4-1.6,0.6-3.2,2.2-3.6c1.6-0.4,3.2,0.6,3.6,2.2l7.7,32.6l0.4,1.5	c0,0.1,0.1,0.3,0.1,0.4c-1.9,1.3-3.1,3.4-3.1,5.8c0,3.8,3,6.9,6.8,7c-3.7,4-5.6,9.7-5.2,16.5c0.1,1.1,1,2,2.1,1.9	c1.1-0.1,1.9-1,1.9-2.1c-0.2-2.9-0.1-12.7,8.2-16.4c0.9-0.4,1.3-1.3,1.1-2.2c-0.2-0.9-1-1.6-2-1.6h-6c-1.7,0-3-1.4-3-3	c0-1.7,1.3-3,3-3h16c1.7,0,3,1.3,3,3V63.8z"/></svg>